<?xml version="1.0" encoding="UTF-8" standalone="no"?>

<svg
   width="32"
   height="32"
   viewBox="0.5 0.5 17 13"
   xmlns="http://www.w3.org/2000/svg">
  <defs>
    <style type="text/css"><![CDATA[
      line {
        stroke: #56CCF2;
        stroke-width: 0.85;
        stroke-linecap: round;
      }
    ]]></style>
  </defs>
  <line x1="9" y1="1" x2="13" y2="1" id="line_1" class="segment"/>
  <line x1="9" y1="1" x2="9" y2="5" id="line_2" class="segment"/>
  <line x1="13" y1="1" x2="13" y2="5" id="line_3" class="segment"/>
  <line x1="1" y1="5" x2="9" y2="5" id="line_4" class="segment"/>
  <line x1="13" y1="5" x2="15" y2="5" id="line_5" class="segment"/>
  <line x1="1" y1="5" x2="1" y2="11" id="line_6" class="segment"/>
  <line x1="15" y1="5" x2="17" y2="7" id="line_7" class="segment "/>
  <line x1="5" y1="7" x2="5" y2="13" id="line_8" class="segment"/>
  <line x1="9" y1="7" x2="9" y2="13" id="line_9" class="segment"/>
  <line x1="13" y1="7" x2="13" y2="11" id="line_10" class="segment"/>
  <line x1="17" y1="7" x2="17" y2="11" id="line_11" class="segment"/>
  <line x1="1" y1="11" x2="3" y2="13" id="line_12" class="segment"/>
  <line x1="5" y1="11" x2="7" y2="13" id="line_13" class="segment"/>
  <line x1="9" y1="11" x2="11" y2="13" id="line_14" class="segment"/>
  <line x1="17" y1="11" x2="15" y2="13" id="line_15" class="segment"/>
  <line x1="3" y1="13" x2="5" y2="13" id="line_16" class="segment"/>
  <line x1="7" y1="13" x2="9" y2="13" id="line_17" class="segment"/>
  <line x1="11" y1="13" x2="15" y2="13" id="line_18" class="segment"/>
</svg>
