<svg width="32" height="32" viewBox="0 0 32 32" fill="none" xmlns="http://www.w3.org/2000/svg">
<path d="M25.5035 12.9455C24.0718 12.9455 22.9733 13.4407 22.2079 14.4312C21.4516 15.4126 21.0734 16.8578 21.0734 18.7667C21.0734 22.6745 22.5456 24.6284 25.49 24.6284C26.2193 24.6284 26.8586 24.4798 27.4078 24.1827C27.9661 23.8765 28.4028 23.4534 28.718 22.9131C29.0421 22.3638 29.2807 21.7471 29.4338 21.0627C29.5959 20.3784 29.6769 19.6176 29.6769 18.7802C29.6769 17.6457 29.5418 16.6552 29.2717 15.8088C29.0106 14.9624 28.5604 14.2736 27.9211 13.7423C27.2818 13.2111 26.4759 12.9455 25.5035 12.9455ZM25.7331 11.0681C27.0477 11.0681 28.1822 11.4012 29.1367 12.0676C30.0911 12.7339 30.8069 13.6388 31.2841 14.7823C31.7614 15.9259 32 17.236 32 18.7126C32 20.2434 31.7614 21.5895 31.2841 22.751C30.8159 23.9126 30.1001 24.831 29.1367 25.5063C28.1822 26.1726 27.0387 26.5058 25.7061 26.5058C24.7246 26.5058 23.8287 26.2942 23.0183 25.871C22.2079 25.4478 21.5326 24.8715 20.9924 24.1422L20.7628 26.1951H18.8314V5.62506L21.0869 5.49V10.3928C21.0869 11.5993 21.0689 12.6348 21.0329 13.4992C21.5551 12.7519 22.2304 12.1621 23.0588 11.7299C23.8962 11.2887 24.7876 11.0681 25.7331 11.0681Z" fill="#2F80ED"/>
<path d="M25.5035 12.9455C24.0718 12.9455 22.9733 13.4407 22.2079 14.4312C21.4516 15.4126 21.0734 16.8578 21.0734 18.7667C21.0734 22.6745 22.5456 24.6284 25.49 24.6284C26.2193 24.6284 26.8586 24.4798 27.4078 24.1827C27.9661 23.8765 28.4028 23.4534 28.718 22.9131C29.0421 22.3638 29.2807 21.7471 29.4338 21.0627C29.5959 20.3784 29.6769 19.6176 29.6769 18.7802C29.6769 17.6457 29.5418 16.6552 29.2717 15.8088C29.0106 14.9624 28.5604 14.2736 27.9211 13.7423C27.2818 13.2111 26.4759 12.9455 25.5035 12.9455ZM25.7331 11.0681C27.0477 11.0681 28.1822 11.4012 29.1367 12.0676C30.0911 12.7339 30.8069 13.6388 31.2841 14.7823C31.7614 15.9259 32 17.236 32 18.7126C32 20.2434 31.7614 21.5895 31.2841 22.751C30.8159 23.9126 30.1001 24.831 29.1367 25.5063C28.1822 26.1726 27.0387 26.5058 25.7061 26.5058C24.7246 26.5058 23.8287 26.2942 23.0183 25.871C22.2079 25.4478 21.5326 24.8715 20.9924 24.1422L20.7628 26.1951H18.8314V5.62506L21.0869 5.49V10.3928C21.0869 11.5993 21.0689 12.6348 21.0329 13.4992C21.5551 12.7519 22.2304 12.1621 23.0588 11.7299C23.8962 11.2887 24.7876 11.0681 25.7331 11.0681Z" fill="url(#paint0_linear)"/>
<path d="M18.8142 26.1951V18.483C18.8142 17.7627 18.7962 17.1594 18.7602 16.6732C18.7332 16.187 18.6612 15.6917 18.5441 15.1875C18.4361 14.6833 18.2785 14.2871 18.0714 13.999C17.8733 13.7018 17.5942 13.4632 17.234 13.2831C16.8738 13.094 16.4416 12.9995 15.9374 12.9995C14.9469 12.9995 14.1006 13.2651 13.3982 13.7964C12.7049 14.3276 12.2097 15.075 11.9125 16.0384C11.8315 16.6867 11.791 17.38 11.791 18.1184V26.1951H9.53543V18.2399C9.53543 17.5736 9.51292 16.9973 9.4679 16.5111C9.42288 16.0159 9.33734 15.5387 9.21128 15.0795C9.08522 14.6112 8.91414 14.2331 8.69804 13.9449C8.49095 13.6568 8.21182 13.4272 7.86065 13.2561C7.50949 13.085 7.0908 12.9995 6.60457 12.9995C5.52407 12.9995 4.61465 13.2741 3.8763 13.8234C3.14696 14.3726 2.65623 15.102 2.40412 16.0114C2.32308 16.7047 2.28256 17.4566 2.28256 18.2669V26.1951H0.0270126C0.00900419 16.9298 0 11.991 0 11.3787H1.89088L2.17451 13.4992C2.62472 12.8149 3.26402 12.2386 4.0924 11.7704C4.92079 11.3022 5.86173 11.0681 6.91522 11.0681C7.46447 11.0681 7.9687 11.1266 8.42792 11.2437C8.89614 11.3517 9.28332 11.4913 9.58946 11.6624C9.9046 11.8334 10.1837 12.0405 10.4268 12.2837C10.67 12.5178 10.859 12.7519 10.9941 12.986C11.1292 13.2111 11.2417 13.4497 11.3318 13.7018C12.4123 11.946 14.0645 11.0681 16.2886 11.0681C17.9363 11.0681 19.1429 11.5408 19.9083 12.4863C20.6826 13.4227 21.0698 14.8138 21.0698 16.6597V26.1951H18.8142Z" fill="#2F80ED"/>
<path d="M18.8142 26.1951V18.483C18.8142 17.7627 18.7962 17.1594 18.7602 16.6732C18.7332 16.187 18.6612 15.6917 18.5441 15.1875C18.4361 14.6833 18.2785 14.2871 18.0714 13.999C17.8733 13.7018 17.5942 13.4632 17.234 13.2831C16.8738 13.094 16.4416 12.9995 15.9374 12.9995C14.9469 12.9995 14.1006 13.2651 13.3982 13.7964C12.7049 14.3276 12.2097 15.075 11.9125 16.0384C11.8315 16.6867 11.791 17.38 11.791 18.1184V26.1951H9.53543V18.2399C9.53543 17.5736 9.51292 16.9973 9.4679 16.5111C9.42288 16.0159 9.33734 15.5387 9.21128 15.0795C9.08522 14.6112 8.91414 14.2331 8.69804 13.9449C8.49095 13.6568 8.21182 13.4272 7.86065 13.2561C7.50949 13.085 7.0908 12.9995 6.60457 12.9995C5.52407 12.9995 4.61465 13.2741 3.8763 13.8234C3.14696 14.3726 2.65623 15.102 2.40412 16.0114C2.32308 16.7047 2.28256 17.4566 2.28256 18.2669V26.1951H0.0270126C0.00900419 16.9298 0 11.991 0 11.3787H1.89088L2.17451 13.4992C2.62472 12.8149 3.26402 12.2386 4.0924 11.7704C4.92079 11.3022 5.86173 11.0681 6.91522 11.0681C7.46447 11.0681 7.9687 11.1266 8.42792 11.2437C8.89614 11.3517 9.28332 11.4913 9.58946 11.6624C9.9046 11.8334 10.1837 12.0405 10.4268 12.2837C10.67 12.5178 10.859 12.7519 10.9941 12.986C11.1292 13.2111 11.2417 13.4497 11.3318 13.7018C12.4123 11.946 14.0645 11.0681 16.2886 11.0681C17.9363 11.0681 19.1429 11.5408 19.9083 12.4863C20.6826 13.4227 21.0698 14.8138 21.0698 16.6597V26.1951H18.8142Z" fill="url(#paint1_linear)"/>
<defs>
<linearGradient id="paint0_linear" x1="26.9682" y1="17.1395" x2="18.6472" y2="17.2796" gradientUnits="userSpaceOnUse">
<stop stop-color="#56CCF2"/>
<stop offset="1" stop-color="white" stop-opacity="0"/>
</linearGradient>
<linearGradient id="paint1_linear" x1="16.4401" y1="14.8756" x2="-1.68108" y2="14.7362" gradientUnits="userSpaceOnUse">
<stop stop-color="#56CCF2"/>
<stop offset="1" stop-color="white" stop-opacity="0"/>
</linearGradient>
</defs>
</svg>
